<svg id="visual" viewBox="0 0 1920 500" width="1920" height="500" xmlns="http://www.w3.org/2000/svg" xmlns:xlink="http://www.w3.org/1999/xlink" version="1.1"><rect x="0" y="0" width="1920" height="500" fill="#161325"></rect><path d="M0 299L45.7 294C91.3 289 182.7 279 274.2 278.8C365.7 278.7 457.3 288.3 548.8 277C640.3 265.7 731.7 233.3 823 209.3C914.3 185.3 1005.7 169.7 1097 173.7C1188.3 177.7 1279.7 201.3 1371.2 224.7C1462.7 248 1554.3 271 1645.8 258.8C1737.3 246.7 1828.7 199.3 1874.3 175.7L1920 152L1920 501L1874.3 501C1828.7 501 1737.3 501 1645.8 501C1554.3 501 1462.7 501 1371.2 501C1279.7 501 1188.3 501 1097 501C1005.7 501 914.3 501 823 501C731.7 501 640.3 501 548.8 501C457.3 501 365.7 501 274.2 501C182.7 501 91.3 501 45.7 501L0 501Z" fill="#a9bdff"></path><path d="M0 276L45.7 280.7C91.3 285.3 182.7 294.7 274.2 301.5C365.7 308.3 457.3 312.7 548.8 323.3C640.3 334 731.7 351 823 358.7C914.3 366.3 1005.7 364.7 1097 344.3C1188.3 324 1279.7 285 1371.2 264.8C1462.7 244.7 1554.3 243.3 1645.8 242.2C1737.3 241 1828.7 240 1874.3 239.5L1920 239L1920 501L1874.3 501C1828.7 501 1737.3 501 1645.8 501C1554.3 501 1462.7 501 1371.2 501C1279.7 501 1188.3 501 1097 501C1005.7 501 914.3 501 823 501C731.7 501 640.3 501 548.8 501C457.3 501 365.7 501 274.2 501C182.7 501 91.3 501 45.7 501L0 501Z" fill="#d6ddff"></path><path d="M0 362L45.7 371.8C91.3 381.7 182.7 401.3 274.2 412C365.7 422.7 457.3 424.3 548.8 421C640.3 417.7 731.7 409.3 823 396.7C914.3 384 1005.7 367 1097 362.7C1188.3 358.3 1279.7 366.7 1371.2 373.2C1462.7 379.7 1554.3 384.3 1645.8 394.5C1737.3 404.7 1828.7 420.3 1874.3 428.2L1920 436L1920 501L1874.3 501C1828.7 501 1737.3 501 1645.8 501C1554.3 501 1462.7 501 1371.2 501C1279.7 501 1188.3 501 1097 501C1005.7 501 914.3 501 823 501C731.7 501 640.3 501 548.8 501C457.3 501 365.7 501 274.2 501C182.7 501 91.3 501 45.7 501L0 501Z" fill="#ffffff"></path></svg>