<svg id="visual" viewBox="0 0 1920 500" width="1920" height="500" xmlns="http://www.w3.org/2000/svg" xmlns:xlink="http://www.w3.org/1999/xlink" version="1.1"><rect x="0" y="0" width="1920" height="500" fill="#fff"></rect><path d="M0 291L45.7 286C91.3 281 182.7 271 274.2 260.2C365.7 249.3 457.3 237.7 548.8 232.7C640.3 227.7 731.7 229.3 823 218.3C914.3 207.3 1005.7 183.7 1097 191.3C1188.3 199 1279.7 238 1371.2 240.3C1462.7 242.7 1554.3 208.3 1645.8 206.7C1737.3 205 1828.7 236 1874.3 251.5L1920 267L1920 501L1874.3 501C1828.7 501 1737.3 501 1645.8 501C1554.3 501 1462.7 501 1371.2 501C1279.7 501 1188.3 501 1097 501C1005.7 501 914.3 501 823 501C731.7 501 640.3 501 548.8 501C457.3 501 365.7 501 274.2 501C182.7 501 91.3 501 45.7 501L0 501Z" fill="#eef2ff"></path><path d="M0 272L45.7 275C91.3 278 182.7 284 274.2 294.5C365.7 305 457.3 320 548.8 325.3C640.3 330.7 731.7 326.3 823 312.8C914.3 299.3 1005.7 276.7 1097 264.3C1188.3 252 1279.7 250 1371.2 262.7C1462.7 275.3 1554.3 302.7 1645.8 305.3C1737.3 308 1828.7 286 1874.3 275L1920 264L1920 501L1874.3 501C1828.7 501 1737.3 501 1645.8 501C1554.3 501 1462.7 501 1371.2 501C1279.7 501 1188.3 501 1097 501C1005.7 501 914.3 501 823 501C731.7 501 640.3 501 548.8 501C457.3 501 365.7 501 274.2 501C182.7 501 91.3 501 45.7 501L0 501Z" fill="#f7f8ff"></path><path d="M0 426L45.7 425.3C91.3 424.7 182.7 423.3 274.2 412.3C365.7 401.3 457.3 380.7 548.8 380.7C640.3 380.7 731.7 401.3 823 405.3C914.3 409.3 1005.7 396.7 1097 391.5C1188.3 386.3 1279.7 388.7 1371.2 383.3C1462.7 378 1554.3 365 1645.8 368.7C1737.3 372.3 1828.7 392.7 1874.3 402.8L1920 413L1920 501L1874.3 501C1828.7 501 1737.3 501 1645.8 501C1554.3 501 1462.7 501 1371.2 501C1279.7 501 1188.3 501 1097 501C1005.7 501 914.3 501 823 501C731.7 501 640.3 501 548.8 501C457.3 501 365.7 501 274.2 501C182.7 501 91.3 501 45.7 501L0 501Z" fill="#ffffff"></path></svg>